<?xml version="1.0" encoding="UTF-8"?>
<!DOCTYPE svg PUBLIC "-//W3C//DTD SVG 1.1//EN" "http://www.w3.org/Graphics/SVG/1.1/DTD/svg11.dtd">
	<svg xmlns="http://www.w3.org/2000/svg" version="1.1" width="172px" height="159px" style="shape-rendering:geometricPrecision; text-rendering:geometricPrecision; image-rendering:optimizeQuality; fill-rule:evenodd; clip-rule:evenodd" xmlns:xlink="http://www.w3.org/1999/xlink">
		<g>
			<path style="opacity:0.643" fill="#8b8af2" d="M 96.5,9.5 C 89.8333,9.5 83.1667,9.5 76.5,9.5C 79.5256,7.98143 82.8589,7.31477 86.5,7.5C 90.1411,7.31477 93.4744,7.98143 96.5,9.5 Z"/>
		</g>
		<g>
			<path style="opacity:0.706" fill="#9e95f9" d="M 75.5,9.5 C 74.4324,10.4345 73.099,10.7678 71.5,10.5C 71.5,11.5 71.5,12.5 71.5,13.5C 68.927,10.7968 69.7603,9.13012 74,8.5C 74.7648,8.56993 75.2648,8.90326 75.5,9.5 Z"/>
		</g>
		<g>
			<path style="opacity:1" fill="#f8f8fd" d="M 122.5,18.5 C 123.353,20.8927 125.019,22.226 127.5,22.5C 127.96,26.5589 130.293,28.5589 134.5,28.5C 135.5,29.1667 136.5,29.8333 137.5,30.5C 137.427,32.0269 138.094,33.0269 139.5,33.5C 143.962,37.7333 147.462,42.7333 150,48.5C 163.834,86.9287 153.667,117.762 119.5,141C 117.257,142.136 114.924,142.97 112.5,143.5C 108.325,143.188 104.325,143.855 100.5,145.5C 98.3845,144.244 97.0511,144.91 96.5,147.5C 89.1591,147.666 81.8258,147.5 74.5,147C 72.8934,145.951 72.2267,144.451 72.5,142.5C 74.1805,136.956 76.3471,131.623 79,126.5C 106.515,128.659 124.681,116.659 133.5,90.5C 135.04,88.1617 135.706,85.4951 135.5,82.5C 135.5,80.1667 135.5,77.8333 135.5,75.5C 135.575,70.8075 134.575,66.4742 132.5,62.5C 131.264,60.351 130.264,58.0177 129.5,55.5C 129.573,53.9731 128.906,52.9731 127.5,52.5C 120.621,43.288 111.954,36.288 101.5,31.5C 99.1617,29.9605 96.4951,29.2938 93.5,29.5C 92.8333,29.5 92.1667,29.5 91.5,29.5C 85.891,28.8914 80.5577,27.2247 75.5,24.5C 75.5,24.1667 75.5,23.8333 75.5,23.5C 75.3404,21.847 74.6737,20.5137 73.5,19.5C 72.6373,17.5786 71.9707,15.5786 71.5,13.5C 71.5,12.5 71.5,11.5 71.5,10.5C 73.099,10.7678 74.4324,10.4345 75.5,9.5C 75.8333,9.5 76.1667,9.5 76.5,9.5C 83.1667,9.5 89.8333,9.5 96.5,9.5C 97.4959,9.58577 98.3292,9.25244 99,8.5C 105.064,10.8551 111.23,13.0218 117.5,15C 119.196,16.1764 120.862,17.343 122.5,18.5 Z"/>
		</g>
		<g>
			<path style="opacity:1" fill="#f6f6fc" d="M 54.5,41.5 C 51.8333,42.1667 50.1667,43.8333 49.5,46.5C 46.7408,49.9197 44.4075,53.5863 42.5,57.5C 41.325,57.281 40.325,57.6143 39.5,58.5C 38.6258,60.7466 38.2924,63.0799 38.5,65.5C 35.1547,80.7614 37.8214,94.7614 46.5,107.5C 47.0798,109.749 48.4131,111.415 50.5,112.5C 54.2018,114.868 57.2018,117.868 59.5,121.5C 58.6323,124.066 57.6323,126.566 56.5,129C 56.8333,129.333 57.1667,129.667 57.5,130C 56.1762,133.463 54.3429,136.629 52,139.5C 32.4575,128.437 20.7909,111.77 17,89.5C 13.4036,61.7867 22.9036,38.9534 45.5,21C 47.6641,20.0857 49.6641,18.919 51.5,17.5C 53.0499,20.7681 54.7166,23.9348 56.5,27C 56.1667,27.3333 55.8333,27.6667 55.5,28C 57.0235,30.8995 58.3569,33.8995 59.5,37C 57.9833,38.6843 56.3166,40.1843 54.5,41.5 Z"/>
		</g>
		<g>
			<path style="opacity:0.188" fill="#8077e4" d="M 73.5,19.5 C 74.6737,20.5137 75.3404,21.847 75.5,23.5C 73.8958,22.713 73.2291,21.3797 73.5,19.5 Z"/>
		</g>
		<g>
			<path style="opacity:1" fill="#cfc9fe" d="M 122.5,18.5 C 125.778,19.8089 128.778,21.6422 131.5,24C 132.748,25.3997 133.748,26.8997 134.5,28.5C 130.293,28.5589 127.96,26.5589 127.5,22.5C 125.019,22.226 123.353,20.8927 122.5,18.5 Z"/>
		</g>
		<g>
			<path style="opacity:1" fill="#c5c1fa" d="M 75.5,24.5 C 80.5577,27.2247 85.891,28.8914 91.5,29.5C 87.3211,29.9674 82.9878,30.3007 78.5,30.5C 76.7489,28.9363 75.7489,26.9363 75.5,24.5 Z"/>
		</g>
		<g>
			<path style="opacity:0.949" fill="#b6a6fc" d="M 93.5,29.5 C 96.4951,29.2938 99.1617,29.9605 101.5,31.5C 100.883,31.6107 100.383,31.944 100,32.5C 97.834,31.2685 95.6674,30.2685 93.5,29.5 Z"/>
		</g>
		<g>
			<path style="opacity:0.408" fill="#796aed" d="M 137.5,30.5 C 138.906,30.9731 139.573,31.9731 139.5,33.5C 138.094,33.0269 137.427,32.0269 137.5,30.5 Z"/>
		</g>
		<g>
			<path style="opacity:0.012" fill="#6c66ef" d="M 54.5,41.5 C 53.1667,43.5 51.5,45.1667 49.5,46.5C 50.1667,43.8333 51.8333,42.1667 54.5,41.5 Z"/>
		</g>
		<g>
			<path style="opacity:0.067" fill="#7669dc" d="M 127.5,52.5 C 128.906,52.9731 129.573,53.9731 129.5,55.5C 128.094,55.0269 127.427,54.0269 127.5,52.5 Z"/>
		</g>
		<g>
			<path style="opacity:1" fill="#c2bdf5" d="M 42.5,57.5 C 41.1648,60.2075 39.8315,62.8742 38.5,65.5C 38.2924,63.0799 38.6258,60.7466 39.5,58.5C 40.325,57.6143 41.325,57.281 42.5,57.5 Z"/>
		</g>
		<g>
			<path style="opacity:0.106" fill="#7a76ee" d="M 132.5,62.5 C 134.575,66.4742 135.575,70.8075 135.5,75.5C 133.882,71.4251 132.882,67.0918 132.5,62.5 Z"/>
		</g>
		<g>
			<path style="opacity:0.271" fill="#7b7bdc" d="M 135.5,82.5 C 135.706,85.4951 135.04,88.1617 133.5,90.5C 133.294,87.5049 133.96,84.8383 135.5,82.5 Z"/>
		</g>
		<g>
			<path style="opacity:0.502" fill="#8c85f9" d="M 46.5,107.5 C 48.5869,108.585 49.9202,110.251 50.5,112.5C 48.4131,111.415 47.0798,109.749 46.5,107.5 Z"/>
		</g>
		<g>
			<path style="opacity:1" fill="#cbc8f9" d="M 112.5,143.5 C 110.701,144.748 108.867,145.748 107,146.5C 105.657,145.786 104.324,146.12 103,147.5C 101.701,147.034 100.201,147.034 98.5,147.5C 97.8333,147.5 97.1667,147.5 96.5,147.5C 97.0511,144.91 98.3845,144.244 100.5,145.5C 104.325,143.855 108.325,143.188 112.5,143.5 Z"/>
		</g>
		<g>
			<path style="opacity:0.392" fill="#8b8aef" d="M 72.5,142.5 C 72.2267,144.451 72.8934,145.951 74.5,147C 81.8258,147.5 89.1591,147.666 96.5,147.5C 97.1667,147.5 97.8333,147.5 98.5,147.5C 90.0099,148.657 81.3433,148.824 72.5,148C 70.5253,146.322 70.5253,144.488 72.5,142.5 Z"/>
		</g>
	</svg>
