<svg width="134" height="32" viewBox="0 0 134 32" fill="none" xmlns="http://www.w3.org/2000/svg">
<g clip-path="url(#clip0_1614_64390)">
<path d="M12.3533 0.442156C15.1494 -0.198594 18.1178 -0.0884297 20.8495 0.794381C23.3308 1.58726 25.6052 3.01115 27.4181 4.87869C28.9724 6.47644 30.1887 8.40169 30.9591 10.4941C32.3912 14.3565 32.2436 18.7758 30.5439 22.5297C29.2392 25.4486 27.0314 27.9532 24.3043 29.6206C20.83 31.7744 16.5051 32.4976 12.519 31.5931C13.0848 30.125 13.6528 28.6576 14.2134 27.188C16.3207 27.508 18.518 27.2412 20.471 26.3809C22.5626 25.4726 24.3635 23.9123 25.57 21.9781C26.7069 20.166 27.3102 18.0234 27.2794 15.8838C27.2667 13.5884 26.5158 11.3064 25.1766 9.44338C23.6927 7.35401 21.4805 5.78998 19.0096 5.10426C17.4014 4.64787 15.6927 4.57068 14.0448 4.84722C13.4895 3.37536 12.9139 1.91176 12.3533 0.442156Z" fill="white"/>
<path d="M41.3115 7.41996C43.6009 7.41846 45.8911 7.41921 48.1814 7.41921C49.3482 7.40497 50.5495 7.4297 51.6504 7.86361C52.4935 8.18361 53.2437 8.75316 53.7488 9.50408C54.2913 10.3262 54.6451 11.2607 54.8736 12.2155C55.1974 13.5652 55.2866 14.9591 55.2821 16.3425C55.2566 17.9447 55.1254 19.5732 54.5896 21.0953C54.2201 22.1534 53.5839 23.1479 52.6524 23.7939C51.6017 24.5418 50.285 24.7906 49.017 24.8026C46.4487 24.8094 43.8797 24.8041 41.3115 24.8049C41.3115 19.0097 41.3115 13.2152 41.3115 7.41996ZM45.8642 11.5035C45.8642 14.5761 45.8642 17.6487 45.8642 20.7213C46.7425 20.7206 47.6208 20.7236 48.4984 20.7198C48.966 20.7153 49.4554 20.6029 49.8106 20.2822C50.2168 19.9194 50.3876 19.3791 50.5053 18.8643C50.7009 17.9365 50.7219 16.984 50.7369 16.0397C50.7121 15.0805 50.7024 14.11 50.4783 13.1725C50.3494 12.7011 50.1868 12.1982 49.7986 11.8737C49.4329 11.5822 48.9488 11.5133 48.4954 11.5043C47.6178 11.5028 46.741 11.5043 45.8642 11.5035Z" fill="white"/>
<path d="M63.0115 7.4919C63.8359 7.3585 64.67 7.45518 65.4996 7.43719C67.5252 7.47766 69.5524 7.56759 71.5691 7.77892C71.5691 9.06417 71.5691 10.3494 71.5691 11.6347C69.4947 11.6339 67.4211 11.6362 65.3474 11.6332C65.0394 11.6204 64.7134 11.6616 64.4594 11.8482C64.2263 12.0176 64.1237 12.3091 64.1169 12.5887C64.1057 13.0878 64.1154 13.5876 64.1124 14.0867C66.2108 14.1549 68.3091 14.2396 70.4075 14.3176C70.4075 15.5204 70.4075 16.7232 70.4075 17.926C68.3114 18.0077 66.2145 18.0984 64.1177 18.1538C64.1282 18.7399 64.063 19.3341 64.1664 19.9142C64.2368 20.3324 64.619 20.6704 65.0477 20.6644C67.221 20.6666 69.395 20.6644 71.5691 20.6651C71.5691 21.9496 71.5691 23.2348 71.5683 24.5193C69.6828 24.7816 67.7786 24.8603 65.878 24.9188C64.6985 24.9225 63.4956 25.0312 62.34 24.7337C61.4857 24.5246 60.6651 24.0465 60.19 23.2881C59.6886 22.5214 59.5665 21.5831 59.5597 20.6861C59.5605 17.7102 59.5582 14.7342 59.5612 11.7583C59.5747 10.7399 59.7321 9.64721 60.4058 8.8401C61.0668 8.08693 62.032 7.64328 63.0115 7.4919Z" fill="white"/>
<path d="M74.6747 7.4207C76.3504 7.41771 78.0268 7.41921 79.7032 7.41996C80.7412 9.11063 81.7881 10.7961 82.8283 12.4852C83.7313 10.7901 84.6599 9.10839 85.5757 7.41921C87.2498 7.4207 88.9248 7.41621 90.599 7.42145C88.8056 10.3846 86.9853 13.3321 85.1994 16.299C86.9696 19.1296 88.7262 21.9676 90.4836 24.8056C88.8079 24.8056 87.1329 24.8056 85.4572 24.8056C84.4508 23.1794 83.4368 21.5577 82.4289 19.9329C81.5438 21.5569 80.6542 23.1779 79.7744 24.8049C78.0957 24.8071 76.4178 24.8049 74.7399 24.8056C76.5055 21.8979 78.2644 18.9864 80.03 16.0794C78.2471 13.1912 76.4568 10.3089 74.6747 7.4207Z" fill="white"/>
<path d="M94.5499 8.80862C95.4185 7.84712 96.7457 7.4207 98.0167 7.4207C100.576 7.44468 103.145 7.46717 105.687 7.79991C105.685 9.07766 105.687 10.3562 105.686 11.6339C103.532 11.6347 101.376 11.6354 99.2225 11.6339C98.8972 11.6332 98.5548 11.7756 98.3869 12.0641C98.1943 12.3511 98.2295 12.7101 98.2295 13.0376C98.2295 13.5434 98.2288 14.05 98.2303 14.5559C100.329 14.6188 102.426 14.7073 104.525 14.7852C104.525 15.988 104.525 17.1916 104.525 18.3944C102.426 18.4753 100.328 18.563 98.2288 18.6237C98.231 20.6838 98.2288 22.7447 98.2295 24.8049C96.712 24.8064 95.1944 24.8056 93.6768 24.8056C93.6776 20.4575 93.6761 16.1094 93.6776 11.7621C93.6881 10.7294 93.8544 9.61874 94.5499 8.80862Z" fill="white"/>
<path d="M110.201 7.41921C111.719 7.41921 113.237 7.41921 114.754 7.41921C114.754 13.2144 114.754 19.0104 114.754 24.8056C113.237 24.8056 111.719 24.8056 110.201 24.8056C110.201 19.0104 110.201 13.2144 110.201 7.41921Z" fill="white"/>
<path d="M119.232 7.41921C120.437 7.41921 121.643 7.41921 122.848 7.41921C124.88 10.6372 126.907 13.8589 128.939 17.0769C128.934 13.8582 128.938 10.6387 128.937 7.41921C130.448 7.41846 131.959 7.41921 133.471 7.41921V24.8056C132.272 24.8056 131.073 24.8049 129.874 24.8064C127.839 21.5944 125.821 18.3719 123.786 15.1599C123.782 18.3749 123.785 21.5899 123.785 24.8056C122.267 24.8056 120.749 24.8056 119.232 24.8056C119.232 19.0104 119.232 13.2144 119.232 7.41921Z" fill="white"/>
<path d="M1.43587 9.37218C2.81555 6.34754 5.16571 3.7733 8.0577 2.13284C8.6325 3.60244 9.19157 5.07729 9.76337 6.54764C7.45068 8.05846 5.72178 10.4431 5.02482 13.1178C4.40805 15.42 4.55494 17.9155 5.43175 20.1308C6.30032 22.3498 7.89208 24.275 9.90426 25.552C9.34145 27.0231 8.77414 28.4927 8.20534 29.9623C5.73377 28.5849 3.63765 26.5435 2.20327 24.1042C0.849083 21.8282 0.0989189 19.2075 -3.8147e-06 16.5636V15.4222C0.0884271 13.3388 0.559809 11.2674 1.43587 9.37218Z" fill="white"/>
</g>
<defs>
<clipPath id="clip0_1614_64390">
<rect width="133.471" height="32" fill="white"/>
</clipPath>
</defs>
</svg>
